<svg width="133" height="115" viewBox="0 0 133 115" fill="none" xmlns="http://www.w3.org/2000/svg"><rect x="130.377" y="47.798" width="19.595" height="129.278" rx="9.797" transform="rotate(90 130.377 47.798)" fill="#FD0" stroke="#000" stroke-width="2"/><path fill-rule="evenodd" clip-rule="evenodd" d="M130.236 55.205c1.526 3.244 1.043 7.192-1.574 10.067l-40.605 44.604c-3.582 3.935-9.806 4.37-13.9.971-4.096-3.399-4.511-9.344-.929-13.28l36.138-39.697L72.37 17.245c-3.583-3.935-3.167-9.879.928-13.277 4.096-3.398 10.32-2.963 13.903.971l40.614 44.597c1.501 1.648 2.3 3.65 2.421 5.669z" fill="#CDBDF1"/><path d="M128.662 65.272l-.74-.674.74.674zm1.574-10.068l-.998.06.011.192.082.174.905-.425zm-42.179 54.672l.74.673-.74-.673zm-13.9.971l-.64.77.64-.77zm-.929-13.28l.74.674-.74-.674zm36.138-39.697l.74.673.613-.673-.613-.674-.74.674zM72.37 17.245l-.739.673.74-.673zm.928-13.277l-.639-.77.64.77zm13.903.971l.74-.673-.74.673zm40.614 44.597l.739-.673-.739.673zm1.586 16.409c2.893-3.179 3.436-7.561 1.74-11.166l-1.81.851c1.357 2.883.932 6.397-1.409 8.968l1.479 1.347zm-40.605 44.604l40.605-44.604-1.479-1.347-40.605 44.605 1.48 1.346zm-15.279 1.068c4.507 3.74 11.337 3.263 15.28-1.068l-1.48-1.346c-3.222 3.54-8.839 3.932-12.522.875l-1.278 1.539zM72.49 96.894c-3.967 4.357-3.505 10.96 1.028 14.723l1.278-1.539c-3.656-3.035-4.026-8.324-.827-11.837l-1.48-1.347zm36.138-39.698L72.489 96.894l1.479 1.347 36.138-39.698-1.479-1.346zm1.479 0L73.11 16.572l-1.479 1.346 36.996 40.625 1.479-1.347zM73.11 16.572c-3.2-3.513-2.83-8.8.827-11.834l-1.278-1.54c-4.534 3.763-4.995 10.364-1.028 14.72l1.479-1.346zm.827-11.834c3.684-3.057 9.302-2.665 12.525.875l1.479-1.347C83.998-.064 77.166-.541 72.659 3.198l1.278 1.54zm12.525.875l40.613 44.596 1.479-1.346L87.941 4.266l-1.479 1.347zm40.613 44.596c1.346 1.478 2.055 3.262 2.163 5.055l1.996-.12c-.134-2.244-1.024-4.462-2.68-6.281l-1.479 1.346z" fill="#000"/></svg>