<svg width="702" height="703" viewBox="0 0 702 703" fill="none" xmlns="http://www.w3.org/2000/svg"><mask id="b" maskUnits="userSpaceOnUse" x="-.390625" y="-.403809" width="702" height="703" fill="#000"><path fill="#fff" d="M-.390625-.403809h702v703h-702z"/><path d="M367.84 700.423c-.334-1.002-1.114-1.559-1.782-2.227-9.693-9.686-19.387-19.372-28.968-29.058-.446-.445-1.003-1.002-1.449-1.447-.557-.668-.557-1.002 0-1.559.557-.556 1.226-1.113 1.783-1.67 6.016-5.344 11.698-11.021 17.046-17.033 6.573-7.237 12.479-15.03 17.938-23.157 6.128-9.129 11.475-18.704 16.155-28.613 3.676-8.015 7.019-16.254 9.693-24.715 3.454-10.688 6.128-21.71 7.91-32.843.892-5.567 1.56-11.133 2.117-16.7.557-6.346.669-12.691.669-19.149 0-2.226 0-4.342-.112-6.568-.111-7.348-.779-14.696-1.671-21.933-1.225-9.908-3.231-19.594-5.682-29.168-2.897-10.8-6.573-21.376-11.03-31.619-5.793-13.359-12.812-26.051-20.946-38.075-4.345-6.346-8.913-12.469-13.815-18.37-.334-.445-.668-1.002-1.337-1.113-.223.668.223 1.002.446 1.447 4.345 9.463 8.133 19.261 11.141 29.28 3.231 10.466 5.793 21.153 7.465 31.953.891 5.232 1.559 10.576 2.005 15.809.334 3.228.446 6.457.668 9.686.446 6.791.335 13.693.223 20.485-.111 3.785-.445 7.682-.668 11.467-.223 4.676-.891 9.24-1.448 13.916-.558 3.674-1.114 7.459-1.783 11.133-2.005 11.022-4.791 21.821-8.356 32.509-6.016 18.147-14.038 35.404-24.066 51.769-6.462 10.577-13.704 20.597-21.726 30.171-3.119 3.674-6.35 7.237-9.581 10.799-4.345 4.676-8.913 9.13-13.704 13.472-7.13 6.457-14.595 12.58-22.394 18.147-11.476 8.238-23.62 15.586-36.321 21.821-2.785 1.336-2.785 1.336-4.011-1.559-4.011-9.686-8.022-19.261-12.033-28.946-1.337-3.229-2.673-6.569-4.01-9.798 0-.111-.112-.111-.112-.222-.78-1.893-.78-2.115 1.225-2.783 2.006-.668 4.012-1.448 5.906-2.116 21.614-8.127 41.446-19.483 59.384-34.067 6.35-5.121 12.366-10.577 18.049-16.366 8.467-8.684 16.154-17.924 23.173-27.944 6.796-9.686 12.702-19.817 17.827-30.505 7.576-15.809 13.258-32.175 17.046-49.32 1.448-6.346 2.563-12.803 3.343-19.26.445-3.674.891-7.348 1.114-11.022.668-7.459.891-15.03.78-22.489-.112-4.787-.335-9.575-.78-14.362-.223-3.117-.558-6.234-.892-9.463-.668-6.012-1.671-11.913-2.897-17.813-1.559-7.793-3.565-15.475-5.904-23.157-.223-.668-.446-1.225-.669-1.893 0 0-.111-.111-.334-.111v17.813c0 4.676-.446 9.241-.78 13.916-.335 4.12-.78 8.239-1.337 12.358-1.226 8.907-2.897 17.591-5.236 26.275-2.674 10.353-6.017 20.485-10.028 30.393-5.348 13.137-11.81 25.829-19.386 37.853-6.239 10.02-13.258 19.483-20.946 28.501-6.685 7.904-13.926 15.363-21.614 22.377-6.685 6.124-13.593 11.801-20.946 17.145-8.467 6.235-17.38 11.801-26.627 16.923-15.153 8.35-31.085 15.141-47.686 20.262-9.916 3.006-19.943 5.455-30.193 7.348-5.571 1.002-11.253 1.781-16.935 2.449-3.231.446-6.573.668-9.916.891-.891.111-1.782.111-2.674.111-1.114 0-1.448-.334-1.56-1.447-.111-.557-.111-1.225-.111-1.781v-40.748c0-3.896.446-3.228 3.231-3.117 8.022.223 16.044.334 24.177 0 4.345-.223 8.69-.668 13.035-1.113 6.017-.668 12.033-1.67 18.049-2.895 14.15-2.895 27.965-7.236 41.224-12.914 12.924-5.567 25.179-12.247 36.766-20.04 8.802-5.901 17.158-12.469 24.957-19.594 3.231-3.006 6.462-6.124 9.582-9.241 7.91-8.016 15.041-16.588 21.614-25.718 7.353-10.019 13.704-20.707 19.163-31.84 5.125-10.354 9.359-20.931 12.924-31.953 3.676-11.355 6.351-23.045 8.133-34.846.78-5.233 1.449-10.354 1.894-15.698.112-.891.223-1.781.335-2.672-.557.111-.557.557-.669.891-2.674 7.459-5.793 14.695-9.136 21.821-5.236 10.91-11.252 21.375-18.049 31.395-5.793 8.461-12.032 16.477-18.829 24.159-5.459 6.123-11.364 12.024-17.38 17.59-7.576 7.014-15.599 13.36-24.066 19.372-11.364 8.016-23.285 14.919-35.763 20.931-11.587 5.455-23.509 10.019-35.765 13.693-9.693 2.895-19.609 5.233-29.636 6.903-4.791.89-9.693 1.447-14.484 2.004-4.233.445-8.356.668-12.59 1.113h-.668c-6.128.111-12.144.668-18.271.334-4.457-.223-8.802-.223-13.259-.557-4.0106-.334-7.9102-.668-11.9211-1.113-5.3478-.668-10.5848-1.336-15.8212-2.338-9.3588-1.67-18.7176-3.896-27.8535-6.68-3.1196-.89-6.3504-2.004-9.4699-3.006-.3343-.111-.5573-.222-.8915-.334-1.1142-.445-1.3365-.779-.8909-1.892.2229-.668.5565-1.448.7793-2.116 4.4566-10.687 8.8018-21.375 13.2583-32.063.8913-2.115 1.6717-4.119 2.563-6.235.2228-.445.3341-.779.5569-1.224.2229-.446.6682-.668 1.1139-.446.5571.223 1.1144.446 1.6715.668 14.3724 7.014 29.4129 12.247 44.8992 15.921 7.354 1.67 14.707 3.006 22.172 3.896 5.794.668 11.698 1.114 17.492 1.448 4.011.222 8.133.334 12.144.222 4.457-.222 9.025-.334 13.481-.668 3.788-.334 7.465-.668 11.253-1.113 4.68-.557 9.358-1.336 14.038-2.227 10.473-2.115 20.723-4.787 30.862-8.349 15.152-5.344 29.636-12.136 43.228-20.597 10.362-6.346 20.167-13.582 29.414-21.598 6.35-5.455 12.478-11.356 18.16-17.479 10.919-11.801 20.612-24.716 28.856-38.521 2.451-4.23 4.903-8.461 7.131-12.803.223-.445.668-.779.445-1.447-.445 0-.668.334-.89.668-4.791 5.344-10.028 10.465-15.264 15.252-5.348 4.899-11.03 9.575-16.824 14.028-13.481 10.242-27.965 18.926-43.34 26.051-17.715 8.239-36.098 14.14-55.15 17.925-6.128 1.224-12.255 2.226-18.494 2.894-4.123.446-8.246.891-12.368 1.114-6.573.445-13.035.779-19.608.668-4.68-.112-9.359-.112-13.927-.668-2.451-.223-4.903-.334-7.465-.557-4.122-.445-8.245-.891-12.255-1.447-9.025-1.336-18.049-3.229-26.962-5.455-12.813-3.34-25.2919-7.682-37.436-13.026-13.9268-6.123-27.1846-13.471-39.8858-21.933-9.1359-6.123-17.938-12.914-26.18264-20.262-.22283-.223-.44563-.445-.66846-.668-.44565-.445-.44576-.891-.11152-1.336.33424-.445.78041-.891 1.22607-1.336 9.91585-9.908 19.71995-19.706 29.63585-29.614 2.1168-2.115 2.0051-2.004 3.8992.111 5.9049 6.68 12.1441 12.803 18.829 18.704 6.7962 6.012 13.9272 11.467 21.3919 16.477 5.4593 3.674 11.03 7.125 16.7121 10.131 14.8183 8.016 30.3043 14.362 46.4593 18.815 8.913 2.45 17.938 4.342 27.074 5.678 4.79.668 9.693 1.225 14.595 1.559 6.908.445 13.815 1.002 20.723.668 4.456-.112 8.913-.223 13.258-.668 2.34-.223 4.791-.334 7.131-.557 2.674-.334 5.348-.557 8.022-1.002 8.69-1.224 17.268-3.006 25.847-5.232 11.699-3.118 23.063-7.126 34.204-12.024 13.259-5.901 25.849-13.026 37.881-21.376 5.794-4.008 11.253-8.238 16.713-12.692.445-.334.779-.668 1.113-1.113-.668-.445-1.002 0-1.336.223-8.691 4.008-17.603 7.459-26.628 10.353-11.587 3.674-23.397 6.569-35.43 8.462-5.459.89-10.807 1.558-16.266 2.004-3.565.334-7.019.445-10.585.668-5.013.334-10.027.334-15.152.222-4.568-.111-9.136-.334-13.704-.668-3.343-.222-6.685-.556-10.139-1.002-6.239-.668-12.366-1.67-18.494-2.894-11.253-2.227-22.283-5.122-33.09-8.907-8.245-2.894-16.266-6.123-24.177-9.797-11.364-5.344-22.283-11.467-32.756-18.481-8.69-5.789-16.8235-12.024-24.7339-18.815-7.019-6.123-13.8152-12.581-20.0543-19.372-10.9186-11.801-20.723-24.604-29.1904-38.298-4.4566-7.125-8.4678-14.362-12.1445-21.821-.3342-.556-.5565-1.224-.8908-1.892-.2228-.446-.1116-.891.4454-1.114.4457-.222.8914-.445 1.4485-.668 10.5843-4.453 21.2799-8.795 31.8642-13.248 2.4511-1.002 4.9025-2.004 7.2422-3.006.557-.223 1.1137-.446 1.6708-.668.557-.112.8917.111 1.1145.557.2229.667.4457 1.224.6685 1.892 3.1196 8.907 6.7961 17.702 11.0299 26.163 6.7962 13.471 14.9295 26.052 24.3999 37.741 3.899 4.788 7.91 9.352 12.255 13.806 11.587 12.135 24.4 22.711 38.438 31.84 10.919 7.126 22.394 13.249 34.427 18.259 12.256 5.121 24.734 9.24 37.658 12.246 6.351 1.448 12.813 2.672 19.275 3.563 5.013.668 10.138 1.225 15.263 1.67 8.133.668 16.378.779 24.511.445 7.577-.334 15.152-1.002 22.617-2.004 13.481-1.781 26.629-4.898 39.553-8.906.557-.223 1.113-.446 1.67-.668 0 0 .001-.112.112-.334-3.454.111-6.796.111-10.138.222-1.003 0-2.006.223-2.897.112-2.34-.223-4.68-.223-7.019-.223-4.568 0-9.025-.445-13.482-.779-7.687-.668-15.375-1.782-22.951-3.229-16.824-3.229-33.09-8.127-48.799-14.918-14.707-6.235-28.634-13.917-41.892-22.935-8.468-5.789-16.601-12.135-24.288-18.926-4.345-3.897-8.69-7.793-12.813-12.024-6.239-6.457-12.144-13.137-17.715-20.151-7.687-9.797-14.706-20.151-20.834-30.95-6.239-11.022-11.699-22.378-16.155-34.179-5.348-13.805-9.359-28.055-12.2554-42.64-1.2256-6.346-2.2285-12.692-3.0084-19.149-.5571-4.564-.8912-9.129-1.2254-13.694v-.668c0-.668.334-1.113 1.1139-1.224.557-.112 1.2259-.112 1.783-.112h41.4453c3.009 0 3.009 0 3.009 3.006 0 4.788-.669 9.575-.335 14.362.223 4.565.223 9.129.669 13.694.334 3.34.557 6.68 1.003 10.131.891 7.793 2.339 15.587 4.122 23.268 3.899 16.589 9.804 32.509 17.492 47.65 7.13 14.139 15.709 27.277 25.737 39.634 3.565 4.454 7.465 8.684 11.364 12.803 12.256 12.915 25.959 24.159 40.889 33.845 14.595 9.463 30.193 17.145 46.571 23.046 11.475 4.119 23.174 7.236 35.207 9.574 5.571 1.114 11.252 2.004 16.934 2.561 2.117.223 4.346.445 6.463.779.445 0 .891.223 1.336-.111-.334-.111-.557-.334-.891-.445-10.25-3.674-20.166-8.128-29.859-13.249-9.693-5.121-19.052-10.91-27.965-17.367-12.813-9.241-24.622-19.706-35.429-31.285-6.797-7.236-13.036-14.918-18.829-23.045-8.356-11.579-15.709-23.825-21.949-36.74-6.685-13.916-12.144-28.278-16.155-43.196-2.34-8.462-4.122-17.034-5.571-25.718-.891-5.455-1.559-10.799-2.005-16.254-.446-5.233-.78-10.466-1.003-15.698-.111-3.117-.334-6.346-.222-9.463.223-5.122.334-10.243.668-15.253.334-4.119.668-8.2383 1.114-12.3575.78-6.9026 1.894-13.6938 3.231-20.485 2.117-10.1312 4.679-20.1511 7.91-30.0596.335-1.1133.669-2.1153 1.114-3.1173.335-.8906.78-1.0019 1.56-.7793.446.1114.891.334 1.226.4454 13.035 5.3439 25.96 10.7991 38.884 16.143 2.562 1.1134 2.562 1.1133 1.337 3.5626-6.685 13.6938-11.81 27.9443-15.376 42.7514-2.005 8.1273-3.565 16.4773-4.456 24.8273-.78 6.457-1.337 12.803-1.449 19.26 0 1.893-.334 3.785-.222 5.567.111 5.566.334 11.133.668 16.699.223 4.008.668 7.905 1.114 11.913.557 4.676 1.337 9.352 2.229 14.028 2.785 14.361 6.907 28.278 12.478 41.86 5.236 12.803 11.587 24.938 19.052 36.517 6.239 9.797 13.258 18.926 20.945 27.61 6.462 7.237 13.37 14.028 20.612 20.485 7.353 6.457 15.152 12.358 23.285 17.813 7.354 4.899 14.819 9.352 22.729 13.471.557.334 1.225.557 1.782.891.335-.557-.111-.779-.333-1.002-2.117-2.004-4.234-3.897-6.24-5.901-8.801-8.683-16.934-17.924-24.288-27.832-6.796-9.018-12.812-18.593-18.16-28.501-7.799-14.251-13.927-29.058-18.718-44.533-3.454-11.244-6.016-22.6-7.799-34.179-.891-5.678-1.56-11.356-2.005-17.033-.335-3.563-.669-7.014-.669-10.577 0-3.785-.557-7.682-.334-11.467.334-5.01.222-10.02.668-15.03.334-4.008.668-7.904 1.114-11.912.557-4.342 1.115-8.796 1.895-13.137 2.228-13.026 5.347-25.718 9.581-38.1872 3.12-9.3519 6.908-18.481 11.03-27.3876 5.682-12.1351 12.367-23.7136 19.943-34.7354 5.348-7.9046 11.253-15.4751 17.492-22.71166.891-1.11332 1.782-2.22663 2.785-3.33995h.892c.668.77932 1.337 1.55864 2.117 2.33796 9.581 9.57455 19.274 19.26035 28.856 28.83485.557.5567 1.002 1.1133 1.559 1.67.223.334.223.668 0 1.002-.334.334-.668.668-1.002.8906-1.894 1.7814-3.9 3.5627-5.794 5.344-6.907 6.5685-13.369 13.5824-19.386 21.0416-8.467 10.5765-15.932 21.821-22.282 33.8448-4.457 8.461-8.356 17.145-11.699 26.052-3.454 9.463-6.351 19.149-8.467 28.946-1.56 7.236-2.786 14.584-3.677 21.932-.557 4.342-1.003 8.684-1.114 13.026-.223 5.344-.335 10.688-.223 15.92.111 7.571.557 15.141 1.448 22.712.669 5.678 1.56 11.356 2.563 16.922 2.116 11.134 5.125 22.044 9.024 32.732 3.008 8.461 6.462 16.7 10.473 24.716 5.236 10.576 11.253 20.707 18.049 30.393 4.011 5.678 8.245 11.133 12.701 16.366.223.222.446.668.892.668.223-.557-.223-1.002-.445-1.448-3.009-6.679-5.905-13.471-8.357-20.485-3.231-9.129-5.905-18.481-8.022-27.944-1.337-6.012-2.451-12.024-3.23-18.147-.558-4.119-1.115-8.35-1.449-12.58-.223-3.674-.668-7.348-.78-11.022-.111-8.461-.334-16.923.334-25.495.223-2.895.335-5.678.669-8.573.446-4.008 1.002-8.015 1.559-12.023 1.783-12.47 4.68-24.605 8.468-36.629 4.457-14.25 10.138-27.944 17.158-41.081 3.676-7.014 7.687-13.805 11.921-20.374 6.796-10.465 14.373-20.3732 22.729-29.6137 5.905-6.6799 12.255-13.0258 18.829-19.0377 7.019-6.3459 14.372-12.2465 22.06-17.8131 11.587-8.3499 23.731-15.5864 36.432-21.9323 2.451-1.2247 2.451-1.2247 3.565 1.336 5.46 13.0258 10.807 26.0516 16.266 39.0774.223.4453.335.8906.447 1.2246.111.4453-.001.8907-.447 1.1133-.557.334-1.225.5567-1.893.7793-15.153 5.344-29.637 12.1352-43.229 20.7077-12.701 8.0159-24.511 17.1455-35.318 27.6105-6.351 6.123-12.256 12.58-17.827 19.483-9.247 11.467-17.269 23.602-24.065 36.628-7.353 14.139-13.258 28.946-17.492 44.31-2.562 9.129-4.457 18.37-5.794 27.721-.557 4.12-1.114 8.128-1.448 12.247-.223 3.34-.668 6.68-.779 10.131-.335 11.69-.223 23.38 1.225 35.069.78 6.68 1.782 13.249 3.008 19.818 1.671 8.683 4.011 17.256 6.685 25.717.111.223 0 .557.445.557-.111-1.782-.222-3.452-.222-5.233 0-5.678-.112-11.244.222-16.922.335-5.789.78-11.579 1.449-17.257 1.114-9.463 2.785-18.703 5.014-27.944 4.122-16.811 9.916-33.065 17.603-48.652 5.571-11.467 12.033-22.377 19.386-32.731 8.022-11.467 16.935-22.044 26.628-31.952 4.011-4.12 8.245-7.905 12.478-11.69 6.797-6.012 13.927-11.69 21.392-16.923 12.701-8.906 26.07-16.588 40.22-23.045 13.481-6.123 27.296-11.022 41.557-14.696 7.465-1.8927 15.042-3.5626 22.729-4.7873 5.014-.7793 9.916-1.5586 14.929-2.0039 2.34-.2227 4.68-.5567 6.908-.668 1.448-.1114 2.897-.1114 4.234-.1114.557 0 1.003.4454 1.003 1.002.111.7793.111 1.67.111 2.4493V138.421c-.111 1.113-.446 1.447-1.56 1.447-2.785-.111-5.571-.223-8.356-.223-10.25-.222-20.612.112-30.862 1.336-6.685.891-13.258 1.893-19.72 3.34-17.157 3.674-33.647 9.463-49.467 17.257-10.585 5.121-20.612 11.133-30.194 17.924-9.47 6.791-18.494 14.251-26.85 22.378-6.017 5.789-11.587 12.024-16.824 18.481-11.81 14.473-21.726 30.059-29.636 46.982-5.014 10.688-9.136 21.709-12.479 33.065-4.345 14.696-7.019 29.614-8.467 44.867-.112.779-.223 1.558.111 2.449.669-.668.78-1.336 1.003-1.893 4.791-13.025 10.807-25.606 17.826-37.63 8.022-13.805 17.492-26.608 28.077-38.52 4.791-5.344 9.692-10.466 15.04-15.253 6.351-5.9 12.925-11.467 19.832-16.588 9.693-7.237 19.832-13.805 30.528-19.595 11.587-6.234 23.619-11.578 35.986-15.92 9.916-3.451 19.944-6.235 30.194-8.461 7.242-1.559 14.595-2.895 21.948-3.674 3.008-.334 6.128-.668 9.136-1.002 3.899-.445 7.799-.779 11.699-.779 6.573-.112 13.035-.112 19.608 0 3.343 0 6.797.222 10.139.556 3.566.334 7.13.78 10.696 1.114 4.79.556 9.581 1.224 14.261 2.115 9.804 1.781 19.609 4.119 29.079 7.014 3.119.89 6.128 2.004 9.247 3.006.78.222 1.003.668.669 1.336-.223.668-.446 1.224-.78 1.892-5.237 12.803-10.584 25.495-15.821 38.298-1.114 2.672-1.114 2.672-3.677 1.448-4.011-2.004-8.021-3.786-12.143-5.456-11.476-4.675-23.175-8.349-35.208-11.021-4.568-1.002-9.135-1.893-13.703-2.561-3.788-.557-7.577-1.113-11.365-1.336-2.897-.223-5.793-.668-8.801-.668-11.253-.334-22.506-.445-33.759.779-4.234.446-8.356 1.002-12.478 1.559-7.576 1.225-15.041 2.783-22.506 4.787-13.37 3.563-26.294 8.35-38.883 14.362-11.476 5.455-22.283 11.801-32.645 19.149-7.799 5.455-15.152 11.356-22.059 17.813-6.908 6.346-13.482 13.026-19.609 20.262-7.911 9.241-14.93 19.038-21.28 29.281-2.563 4.119-5.014 8.35-7.242 12.691-.223.446-.669 1.002-.557 1.67h.334c.557-.556 1.114-1.002 1.671-1.558 4.791-4.899 9.582-9.797 14.707-14.251 8.467-7.57 17.38-14.361 26.739-20.707 12.144-8.128 24.957-15.03 38.438-20.708 16.266-6.903 33.202-12.024 50.582-15.364 6.351-1.224 12.701-2.115 19.163-2.783 4.679-.557 9.247-1.002 13.927-1.113 9.47-.223 18.94-.446 28.41.222 4.791.334 9.582.78 14.373 1.336 5.459.668 10.918 1.448 16.266 2.45 15.487 3.006 30.639 7.347 45.346 13.137 9.47 3.785 18.717 8.127 27.741 13.025 9.359 5.122 18.273 10.688 26.852 16.923 7.13 5.121 14.038 10.576 20.611 16.366v1.781c-.669.668-1.337 1.225-2.005 1.893-9.471 9.463-18.941 18.926-28.411 28.389-.445.445-.891 1.002-1.448 1.447-.78.668-1.114.668-1.894-.111-1.226-1.225-2.34-2.56-3.454-3.896-9.916-10.577-20.723-20.263-32.533-28.724-17.158-12.247-35.764-21.821-55.707-28.724-12.701-4.342-25.848-7.57-39.107-9.463-8.244-1.224-16.489-2.004-24.845-2.226-2.339 0-4.679 0-7.019-.223-.668-.111-1.337 0-2.005 0-1.003 0-2.117.111-3.12.111-5.793.112-11.587.334-17.269.891-5.237.557-10.473 1.225-15.598 2.004-9.581 1.559-19.052 3.785-28.299 6.68-15.598 4.787-30.639 11.133-44.9 19.149-13.37 7.459-25.848 16.143-37.435 26.163-.223.222-.557.334-.446.779.891-.111 1.672-.557 2.452-1.002 8.021-3.674 16.155-6.902 24.511-9.686 10.918-3.674 22.06-6.457 33.424-8.461 4.234-.779 8.579-1.447 12.924-1.893 3.119-.334 6.239-.668 9.359-1.002 4.234-.334 8.578-.779 12.812-.779 6.796 0 13.481-.111 20.277.334 4.457.334 9.025.557 13.482 1.113 6.462.78 12.924 1.67 19.386 3.006 19.163 3.786 37.657 9.686 55.484 17.813 13.704 6.346 26.851 13.694 39.329 22.489 13.927 9.798 26.85 20.819 38.549 33.177 4.679 4.899 9.136 10.02 13.37 15.253 11.698 14.584 21.726 30.282 30.082 46.982 1.337 2.56 1.225 2.56-1.449 3.673-7.465 3.118-15.041 6.235-22.506 9.352-5.57 2.338-11.252 4.676-16.934 7.014-1.783.668-2.006.557-2.675-1.113-.111-.223-.111-.445-.222-.668-4.122-11.69-9.136-23.046-15.152-33.845-8.802-15.809-19.498-30.282-31.977-43.419-5.682-6.012-11.698-11.579-18.049-16.923-11.141-9.351-23.173-17.479-35.875-24.381-16.377-8.907-33.424-15.587-51.473-20.263-8.022-2.004-16.155-3.674-24.288-4.787-3.899-.556-7.91-1.113-11.81-1.336-3.342-.222-6.685-.668-10.139-.779-8.133-.111-16.266-.334-24.288.223-4.902.334-9.916.779-14.818 1.336-7.242.89-14.373 2.226-21.503 3.785-6.574 1.447-13.147 3.228-19.609 5.344-.334.111-.891 0-.891.668.223 0 .446.111.669.111 10.25-.111 20.611-.223 30.861.779 4.456.446 9.025.891 13.481 1.559 9.916 1.447 19.72 3.451 29.302 6.235 13.481 3.785 26.405 8.572 38.995 14.584 12.256 5.789 23.843 12.692 34.984 20.374 11.587 8.127 22.394 17.145 32.533 27.165 5.682 5.566 11.03 11.467 16.043 17.701 7.688 9.241 14.707 19.038 20.946 29.281 5.682 9.351 10.807 19.149 15.264 29.168 4.345 9.575 7.91 19.483 10.918 29.615 3.231 10.91 5.794 21.932 7.576 33.176.78 4.899 1.449 9.798 1.895 14.696.223 2.783.446 5.567.78 8.35.334 2.895 0 3.229-3.008 3.229h-41.447c-2.897 0-3.007-.112-2.896-2.895.111-2.561.334-5.121.334-7.682 0-5.121.111-10.242-.223-15.364-.334-5.566-.78-11.133-1.449-16.588-.891-7.348-2.228-14.584-3.899-21.71-4.679-20.039-12.144-38.966-22.283-56.89-10.027-17.702-22.282-33.734-36.655-48.095-4.345-4.342-8.802-8.35-13.481-12.358-12.478-10.465-25.848-19.594-40.22-27.165-13.481-7.125-27.631-12.914-42.337-17.145-8.579-2.561-17.27-4.565-26.072-6.123-7.13-1.225-14.26-2.004-21.502-2.672-.223 0-.334 0-.557.111.334.445.668.445 1.002.557 8.579 3.117 16.935 6.568 25.068 10.688 11.587 5.789 22.729 12.357 33.202 19.928 8.802 6.234 17.046 13.137 24.845 20.485 5.905 5.678 11.587 11.578 16.935 17.702 5.682 6.568 10.919 13.359 15.821 20.485 9.359 13.471 17.269 27.61 23.731 42.64 4.791 11.244 8.802 22.711 11.921 34.512 2.452 9.018 4.346 18.147 5.683 27.388.557 4.119 1.225 8.35 1.559 12.469.111 2.115.335 4.342.558 6.457.222 3.786.557 7.682.668 11.467.111 6.124.111 12.136-.223 18.259-.223 4.898-.669 9.908-1.115 14.807-.445 4.899-1.225 9.797-2.005 14.696-2.228 13.805-5.682 27.387-10.138 40.636-.892 2.56-.891 2.56-3.343 1.558-10.027-4.119-20.166-8.349-30.193-12.469-3.231-1.336-6.574-2.672-9.805-4.119-1.225-.557-1.337-.891-.891-2.115.111-.334.335-.668.446-1.002 1.114-2.338 2.228-4.788 3.342-7.126 5.571-12.691 9.916-25.828 12.924-39.3 1.226-5.566 2.229-11.133 3.12-16.811.668-4.342 1.003-8.795 1.448-13.248.335-4.231.557-8.573.669-12.803.223-5.233.111-10.354-.335-15.587-.222-2.894-.334-5.9-.557-8.795-.557-5.344-1.225-10.688-2.116-16.032-2.006-11.689-4.902-23.268-8.69-34.512-3.9-11.356-8.691-22.378-14.373-33.066-5.237-9.908-11.253-19.372-17.938-28.389-5.013-6.792-10.473-13.249-16.155-19.372-6.016-6.569-12.59-12.692-19.386-18.481-5.348-4.565-11.03-8.907-16.712-12.915-8.802-6.234-18.049-11.689-27.519-16.699-.334-.223-.669-.557-1.226-.334.111.111.112.334.223.334 9.247 8.35 17.604 17.367 25.403 27.053 7.353 9.129 13.926 18.815 19.831 28.946 5.237 9.018 9.916 18.37 13.927 28.056 6.128 14.584 10.696 29.614 13.815 45.201 1.449 7.236 2.674 14.473 3.454 21.821.334 3.562.669 7.125 1.003 10.799.446 5.455.334 10.91.668 16.477.112 2.56-.223 5.121-.223 7.682 0 4.119-.334 8.238-.668 12.358-.446 4.787-.892 9.574-1.56 14.361-1.226 8.907-3.008 17.813-5.125 26.497-2.228 8.795-4.902 17.368-8.022 25.829-6.573 17.702-15.04 34.513-25.402 50.433-6.685 10.243-14.149 20.04-22.171 29.169-.446.557-.892 1.002-1.115 1.67-.111.112-.445.112-.668.112Z"/></mask><path d="M367.84 700.423c-.334-1.002-1.114-1.559-1.782-2.227-9.693-9.686-19.387-19.372-28.968-29.058-.446-.445-1.003-1.002-1.449-1.447-.557-.668-.557-1.002 0-1.559.557-.556 1.226-1.113 1.783-1.67 6.016-5.344 11.698-11.021 17.046-17.033 6.573-7.237 12.479-15.03 17.938-23.157 6.128-9.129 11.475-18.704 16.155-28.613 3.676-8.015 7.019-16.254 9.693-24.715 3.454-10.688 6.128-21.71 7.91-32.843.892-5.567 1.56-11.133 2.117-16.7.557-6.346.669-12.691.669-19.149 0-2.226 0-4.342-.112-6.568-.111-7.348-.779-14.696-1.671-21.933-1.225-9.908-3.231-19.594-5.682-29.168-2.897-10.8-6.573-21.376-11.03-31.619-5.793-13.359-12.812-26.051-20.946-38.075-4.345-6.346-8.913-12.469-13.815-18.37-.334-.445-.668-1.002-1.337-1.113-.223.668.223 1.002.446 1.447 4.345 9.463 8.133 19.261 11.141 29.28 3.231 10.466 5.793 21.153 7.465 31.953.891 5.232 1.559 10.576 2.005 15.809.334 3.228.446 6.457.668 9.686.446 6.791.335 13.693.223 20.485-.111 3.785-.445 7.682-.668 11.467-.223 4.676-.891 9.24-1.448 13.916-.558 3.674-1.114 7.459-1.783 11.133-2.005 11.022-4.791 21.821-8.356 32.509-6.016 18.147-14.038 35.404-24.066 51.769-6.462 10.577-13.704 20.597-21.726 30.171-3.119 3.674-6.35 7.237-9.581 10.799-4.345 4.676-8.913 9.13-13.704 13.472-7.13 6.457-14.595 12.58-22.394 18.147-11.476 8.238-23.62 15.586-36.321 21.821-2.785 1.336-2.785 1.336-4.011-1.559-4.011-9.686-8.022-19.261-12.033-28.946-1.337-3.229-2.673-6.569-4.01-9.798 0-.111-.112-.111-.112-.222-.78-1.893-.78-2.115 1.225-2.783 2.006-.668 4.012-1.448 5.906-2.116 21.614-8.127 41.446-19.483 59.384-34.067 6.35-5.121 12.366-10.577 18.049-16.366 8.467-8.684 16.154-17.924 23.173-27.944 6.796-9.686 12.702-19.817 17.827-30.505 7.576-15.809 13.258-32.175 17.046-49.32 1.448-6.346 2.563-12.803 3.343-19.26.445-3.674.891-7.348 1.114-11.022.668-7.459.891-15.03.78-22.489-.112-4.787-.335-9.575-.78-14.362-.223-3.117-.558-6.234-.892-9.463-.668-6.012-1.671-11.913-2.897-17.813-1.559-7.793-3.565-15.475-5.904-23.157-.223-.668-.446-1.225-.669-1.893 0 0-.111-.111-.334-.111v17.813c0 4.676-.446 9.241-.78 13.916-.335 4.12-.78 8.239-1.337 12.358-1.226 8.907-2.897 17.591-5.236 26.275-2.674 10.353-6.017 20.485-10.028 30.393-5.348 13.137-11.81 25.829-19.386 37.853-6.239 10.02-13.258 19.483-20.946 28.501-6.685 7.904-13.926 15.363-21.614 22.377-6.685 6.124-13.593 11.801-20.946 17.145-8.467 6.235-17.38 11.801-26.627 16.923-15.153 8.35-31.085 15.141-47.686 20.262-9.916 3.006-19.943 5.455-30.193 7.348-5.571 1.002-11.253 1.781-16.935 2.449-3.231.446-6.573.668-9.916.891-.891.111-1.782.111-2.674.111-1.114 0-1.448-.334-1.56-1.447-.111-.557-.111-1.225-.111-1.781v-40.748c0-3.896.446-3.228 3.231-3.117 8.022.223 16.044.334 24.177 0 4.345-.223 8.69-.668 13.035-1.113 6.017-.668 12.033-1.67 18.049-2.895 14.15-2.895 27.965-7.236 41.224-12.914 12.924-5.567 25.179-12.247 36.766-20.04 8.802-5.901 17.158-12.469 24.957-19.594 3.231-3.006 6.462-6.124 9.582-9.241 7.91-8.016 15.041-16.588 21.614-25.718 7.353-10.019 13.704-20.707 19.163-31.84 5.125-10.354 9.359-20.931 12.924-31.953 3.676-11.355 6.351-23.045 8.133-34.846.78-5.233 1.449-10.354 1.894-15.698.112-.891.223-1.781.335-2.672-.557.111-.557.557-.669.891-2.674 7.459-5.793 14.695-9.136 21.821-5.236 10.91-11.252 21.375-18.049 31.395-5.793 8.461-12.032 16.477-18.829 24.159-5.459 6.123-11.364 12.024-17.38 17.59-7.576 7.014-15.599 13.36-24.066 19.372-11.364 8.016-23.285 14.919-35.763 20.931-11.587 5.455-23.509 10.019-35.765 13.693-9.693 2.895-19.609 5.233-29.636 6.903-4.791.89-9.693 1.447-14.484 2.004-4.233.445-8.356.668-12.59 1.113h-.668c-6.128.111-12.144.668-18.271.334-4.457-.223-8.802-.223-13.259-.557-4.0106-.334-7.9102-.668-11.9211-1.113-5.3478-.668-10.5848-1.336-15.8212-2.338-9.3588-1.67-18.7176-3.896-27.8535-6.68-3.1196-.89-6.3504-2.004-9.4699-3.006-.3343-.111-.5573-.222-.8915-.334-1.1142-.445-1.3365-.779-.8909-1.892.2229-.668.5565-1.448.7793-2.116 4.4566-10.687 8.8018-21.375 13.2583-32.063.8913-2.115 1.6717-4.119 2.563-6.235.2228-.445.3341-.779.5569-1.224.2229-.446.6682-.668 1.1139-.446.5571.223 1.1144.446 1.6715.668 14.3724 7.014 29.4129 12.247 44.8992 15.921 7.354 1.67 14.707 3.006 22.172 3.896 5.794.668 11.698 1.114 17.492 1.448 4.011.222 8.133.334 12.144.222 4.457-.222 9.025-.334 13.481-.668 3.788-.334 7.465-.668 11.253-1.113 4.68-.557 9.358-1.336 14.038-2.227 10.473-2.115 20.723-4.787 30.862-8.349 15.152-5.344 29.636-12.136 43.228-20.597 10.362-6.346 20.167-13.582 29.414-21.598 6.35-5.455 12.478-11.356 18.16-17.479 10.919-11.801 20.612-24.716 28.856-38.521 2.451-4.23 4.903-8.461 7.131-12.803.223-.445.668-.779.445-1.447-.445 0-.668.334-.89.668-4.791 5.344-10.028 10.465-15.264 15.252-5.348 4.899-11.03 9.575-16.824 14.028-13.481 10.242-27.965 18.926-43.34 26.051-17.715 8.239-36.098 14.14-55.15 17.925-6.128 1.224-12.255 2.226-18.494 2.894-4.123.446-8.246.891-12.368 1.114-6.573.445-13.035.779-19.608.668-4.68-.112-9.359-.112-13.927-.668-2.451-.223-4.903-.334-7.465-.557-4.122-.445-8.245-.891-12.255-1.447-9.025-1.336-18.049-3.229-26.962-5.455-12.813-3.34-25.2919-7.682-37.436-13.026-13.9268-6.123-27.1846-13.471-39.8858-21.933-9.1359-6.123-17.938-12.914-26.18264-20.262-.22283-.223-.44563-.445-.66846-.668-.44565-.445-.44576-.891-.11152-1.336.33424-.445.78041-.891 1.22607-1.336 9.91585-9.908 19.71995-19.706 29.63585-29.614 2.1168-2.115 2.0051-2.004 3.8992.111 5.9049 6.68 12.1441 12.803 18.829 18.704 6.7962 6.012 13.9272 11.467 21.3919 16.477 5.4593 3.674 11.03 7.125 16.7121 10.131 14.8183 8.016 30.3043 14.362 46.4593 18.815 8.913 2.45 17.938 4.342 27.074 5.678 4.79.668 9.693 1.225 14.595 1.559 6.908.445 13.815 1.002 20.723.668 4.456-.112 8.913-.223 13.258-.668 2.34-.223 4.791-.334 7.131-.557 2.674-.334 5.348-.557 8.022-1.002 8.69-1.224 17.268-3.006 25.847-5.232 11.699-3.118 23.063-7.126 34.204-12.024 13.259-5.901 25.849-13.026 37.881-21.376 5.794-4.008 11.253-8.238 16.713-12.692.445-.334.779-.668 1.113-1.113-.668-.445-1.002 0-1.336.223-8.691 4.008-17.603 7.459-26.628 10.353-11.587 3.674-23.397 6.569-35.43 8.462-5.459.89-10.807 1.558-16.266 2.004-3.565.334-7.019.445-10.585.668-5.013.334-10.027.334-15.152.222-4.568-.111-9.136-.334-13.704-.668-3.343-.222-6.685-.556-10.139-1.002-6.239-.668-12.366-1.67-18.494-2.894-11.253-2.227-22.283-5.122-33.09-8.907-8.245-2.894-16.266-6.123-24.177-9.797-11.364-5.344-22.283-11.467-32.756-18.481-8.69-5.789-16.8235-12.024-24.7339-18.815-7.019-6.123-13.8152-12.581-20.0543-19.372-10.9186-11.801-20.723-24.604-29.1904-38.298-4.4566-7.125-8.4678-14.362-12.1445-21.821-.3342-.556-.5565-1.224-.8908-1.892-.2228-.446-.1116-.891.4454-1.114.4457-.222.8914-.445 1.4485-.668 10.5843-4.453 21.2799-8.795 31.8642-13.248 2.4511-1.002 4.9025-2.004 7.2422-3.006.557-.223 1.1137-.446 1.6708-.668.557-.112.8917.111 1.1145.557.2229.667.4457 1.224.6685 1.892 3.1196 8.907 6.7961 17.702 11.0299 26.163 6.7962 13.471 14.9295 26.052 24.3999 37.741 3.899 4.788 7.91 9.352 12.255 13.806 11.587 12.135 24.4 22.711 38.438 31.84 10.919 7.126 22.394 13.249 34.427 18.259 12.256 5.121 24.734 9.24 37.658 12.246 6.351 1.448 12.813 2.672 19.275 3.563 5.013.668 10.138 1.225 15.263 1.67 8.133.668 16.378.779 24.511.445 7.577-.334 15.152-1.002 22.617-2.004 13.481-1.781 26.629-4.898 39.553-8.906.557-.223 1.113-.446 1.67-.668 0 0 .001-.112.112-.334-3.454.111-6.796.111-10.138.222-1.003 0-2.006.223-2.897.112-2.34-.223-4.68-.223-7.019-.223-4.568 0-9.025-.445-13.482-.779-7.687-.668-15.375-1.782-22.951-3.229-16.824-3.229-33.09-8.127-48.799-14.918-14.707-6.235-28.634-13.917-41.892-22.935-8.468-5.789-16.601-12.135-24.288-18.926-4.345-3.897-8.69-7.793-12.813-12.024-6.239-6.457-12.144-13.137-17.715-20.151-7.687-9.797-14.706-20.151-20.834-30.95-6.239-11.022-11.699-22.378-16.155-34.179-5.348-13.805-9.359-28.055-12.2554-42.64-1.2256-6.346-2.2285-12.692-3.0084-19.149-.5571-4.564-.8912-9.129-1.2254-13.694v-.668c0-.668.334-1.113 1.1139-1.224.557-.112 1.2259-.112 1.783-.112h41.4453c3.009 0 3.009 0 3.009 3.006 0 4.788-.669 9.575-.335 14.362.223 4.565.223 9.129.669 13.694.334 3.34.557 6.68 1.003 10.131.891 7.793 2.339 15.587 4.122 23.268 3.899 16.589 9.804 32.509 17.492 47.65 7.13 14.139 15.709 27.277 25.737 39.634 3.565 4.454 7.465 8.684 11.364 12.803 12.256 12.915 25.959 24.159 40.889 33.845 14.595 9.463 30.193 17.145 46.571 23.046 11.475 4.119 23.174 7.236 35.207 9.574 5.571 1.114 11.252 2.004 16.934 2.561 2.117.223 4.346.445 6.463.779.445 0 .891.223 1.336-.111-.334-.111-.557-.334-.891-.445-10.25-3.674-20.166-8.128-29.859-13.249-9.693-5.121-19.052-10.91-27.965-17.367-12.813-9.241-24.622-19.706-35.429-31.285-6.797-7.236-13.036-14.918-18.829-23.045-8.356-11.579-15.709-23.825-21.949-36.74-6.685-13.916-12.144-28.278-16.155-43.196-2.34-8.462-4.122-17.034-5.571-25.718-.891-5.455-1.559-10.799-2.005-16.254-.446-5.233-.78-10.466-1.003-15.698-.111-3.117-.334-6.346-.222-9.463.223-5.122.334-10.243.668-15.253.334-4.119.668-8.2383 1.114-12.3575.78-6.9026 1.894-13.6938 3.231-20.485 2.117-10.1312 4.679-20.1511 7.91-30.0596.335-1.1133.669-2.1153 1.114-3.1173.335-.8906.78-1.0019 1.56-.7793.446.1114.891.334 1.226.4454 13.035 5.3439 25.96 10.7991 38.884 16.143 2.562 1.1134 2.562 1.1133 1.337 3.5626-6.685 13.6938-11.81 27.9443-15.376 42.7514-2.005 8.1273-3.565 16.4773-4.456 24.8273-.78 6.457-1.337 12.803-1.449 19.26 0 1.893-.334 3.785-.222 5.567.111 5.566.334 11.133.668 16.699.223 4.008.668 7.905 1.114 11.913.557 4.676 1.337 9.352 2.229 14.028 2.785 14.361 6.907 28.278 12.478 41.86 5.236 12.803 11.587 24.938 19.052 36.517 6.239 9.797 13.258 18.926 20.945 27.61 6.462 7.237 13.37 14.028 20.612 20.485 7.353 6.457 15.152 12.358 23.285 17.813 7.354 4.899 14.819 9.352 22.729 13.471.557.334 1.225.557 1.782.891.335-.557-.111-.779-.333-1.002-2.117-2.004-4.234-3.897-6.24-5.901-8.801-8.683-16.934-17.924-24.288-27.832-6.796-9.018-12.812-18.593-18.16-28.501-7.799-14.251-13.927-29.058-18.718-44.533-3.454-11.244-6.016-22.6-7.799-34.179-.891-5.678-1.56-11.356-2.005-17.033-.335-3.563-.669-7.014-.669-10.577 0-3.785-.557-7.682-.334-11.467.334-5.01.222-10.02.668-15.03.334-4.008.668-7.904 1.114-11.912.557-4.342 1.115-8.796 1.895-13.137 2.228-13.026 5.347-25.718 9.581-38.1872 3.12-9.3519 6.908-18.481 11.03-27.3876 5.682-12.1351 12.367-23.7136 19.943-34.7354 5.348-7.9046 11.253-15.4751 17.492-22.71166.891-1.11332 1.782-2.22663 2.785-3.33995h.892c.668.77932 1.337 1.55864 2.117 2.33796 9.581 9.57455 19.274 19.26035 28.856 28.83485.557.5567 1.002 1.1133 1.559 1.67.223.334.223.668 0 1.002-.334.334-.668.668-1.002.8906-1.894 1.7814-3.9 3.5627-5.794 5.344-6.907 6.5685-13.369 13.5824-19.386 21.0416-8.467 10.5765-15.932 21.821-22.282 33.8448-4.457 8.461-8.356 17.145-11.699 26.052-3.454 9.463-6.351 19.149-8.467 28.946-1.56 7.236-2.786 14.584-3.677 21.932-.557 4.342-1.003 8.684-1.114 13.026-.223 5.344-.335 10.688-.223 15.92.111 7.571.557 15.141 1.448 22.712.669 5.678 1.56 11.356 2.563 16.922 2.116 11.134 5.125 22.044 9.024 32.732 3.008 8.461 6.462 16.7 10.473 24.716 5.236 10.576 11.253 20.707 18.049 30.393 4.011 5.678 8.245 11.133 12.701 16.366.223.222.446.668.892.668.223-.557-.223-1.002-.445-1.448-3.009-6.679-5.905-13.471-8.357-20.485-3.231-9.129-5.905-18.481-8.022-27.944-1.337-6.012-2.451-12.024-3.23-18.147-.558-4.119-1.115-8.35-1.449-12.58-.223-3.674-.668-7.348-.78-11.022-.111-8.461-.334-16.923.334-25.495.223-2.895.335-5.678.669-8.573.446-4.008 1.002-8.015 1.559-12.023 1.783-12.47 4.68-24.605 8.468-36.629 4.457-14.25 10.138-27.944 17.158-41.081 3.676-7.014 7.687-13.805 11.921-20.374 6.796-10.465 14.373-20.3732 22.729-29.6137 5.905-6.6799 12.255-13.0258 18.829-19.0377 7.019-6.3459 14.372-12.2465 22.06-17.8131 11.587-8.3499 23.731-15.5864 36.432-21.9323 2.451-1.2247 2.451-1.2247 3.565 1.336 5.46 13.0258 10.807 26.0516 16.266 39.0774.223.4453.335.8906.447 1.2246.111.4453-.001.8907-.447 1.1133-.557.334-1.225.5567-1.893.7793-15.153 5.344-29.637 12.1352-43.229 20.7077-12.701 8.0159-24.511 17.1455-35.318 27.6105-6.351 6.123-12.256 12.58-17.827 19.483-9.247 11.467-17.269 23.602-24.065 36.628-7.353 14.139-13.258 28.946-17.492 44.31-2.562 9.129-4.457 18.37-5.794 27.721-.557 4.12-1.114 8.128-1.448 12.247-.223 3.34-.668 6.68-.779 10.131-.335 11.69-.223 23.38 1.225 35.069.78 6.68 1.782 13.249 3.008 19.818 1.671 8.683 4.011 17.256 6.685 25.717.111.223 0 .557.445.557-.111-1.782-.222-3.452-.222-5.233 0-5.678-.112-11.244.222-16.922.335-5.789.78-11.579 1.449-17.257 1.114-9.463 2.785-18.703 5.014-27.944 4.122-16.811 9.916-33.065 17.603-48.652 5.571-11.467 12.033-22.377 19.386-32.731 8.022-11.467 16.935-22.044 26.628-31.952 4.011-4.12 8.245-7.905 12.478-11.69 6.797-6.012 13.927-11.69 21.392-16.923 12.701-8.906 26.07-16.588 40.22-23.045 13.481-6.123 27.296-11.022 41.557-14.696 7.465-1.8927 15.042-3.5626 22.729-4.7873 5.014-.7793 9.916-1.5586 14.929-2.0039 2.34-.2227 4.68-.5567 6.908-.668 1.448-.1114 2.897-.1114 4.234-.1114.557 0 1.003.4454 1.003 1.002.111.7793.111 1.67.111 2.4493V138.421c-.111 1.113-.446 1.447-1.56 1.447-2.785-.111-5.571-.223-8.356-.223-10.25-.222-20.612.112-30.862 1.336-6.685.891-13.258 1.893-19.72 3.34-17.157 3.674-33.647 9.463-49.467 17.257-10.585 5.121-20.612 11.133-30.194 17.924-9.47 6.791-18.494 14.251-26.85 22.378-6.017 5.789-11.587 12.024-16.824 18.481-11.81 14.473-21.726 30.059-29.636 46.982-5.014 10.688-9.136 21.709-12.479 33.065-4.345 14.696-7.019 29.614-8.467 44.867-.112.779-.223 1.558.111 2.449.669-.668.78-1.336 1.003-1.893 4.791-13.025 10.807-25.606 17.826-37.63 8.022-13.805 17.492-26.608 28.077-38.52 4.791-5.344 9.692-10.466 15.04-15.253 6.351-5.9 12.925-11.467 19.832-16.588 9.693-7.237 19.832-13.805 30.528-19.595 11.587-6.234 23.619-11.578 35.986-15.92 9.916-3.451 19.944-6.235 30.194-8.461 7.242-1.559 14.595-2.895 21.948-3.674 3.008-.334 6.128-.668 9.136-1.002 3.899-.445 7.799-.779 11.699-.779 6.573-.112 13.035-.112 19.608 0 3.343 0 6.797.222 10.139.556 3.566.334 7.13.78 10.696 1.114 4.79.556 9.581 1.224 14.261 2.115 9.804 1.781 19.609 4.119 29.079 7.014 3.119.89 6.128 2.004 9.247 3.006.78.222 1.003.668.669 1.336-.223.668-.446 1.224-.78 1.892-5.237 12.803-10.584 25.495-15.821 38.298-1.114 2.672-1.114 2.672-3.677 1.448-4.011-2.004-8.021-3.786-12.143-5.456-11.476-4.675-23.175-8.349-35.208-11.021-4.568-1.002-9.135-1.893-13.703-2.561-3.788-.557-7.577-1.113-11.365-1.336-2.897-.223-5.793-.668-8.801-.668-11.253-.334-22.506-.445-33.759.779-4.234.446-8.356 1.002-12.478 1.559-7.576 1.225-15.041 2.783-22.506 4.787-13.37 3.563-26.294 8.35-38.883 14.362-11.476 5.455-22.283 11.801-32.645 19.149-7.799 5.455-15.152 11.356-22.059 17.813-6.908 6.346-13.482 13.026-19.609 20.262-7.911 9.241-14.93 19.038-21.28 29.281-2.563 4.119-5.014 8.35-7.242 12.691-.223.446-.669 1.002-.557 1.67h.334c.557-.556 1.114-1.002 1.671-1.558 4.791-4.899 9.582-9.797 14.707-14.251 8.467-7.57 17.38-14.361 26.739-20.707 12.144-8.128 24.957-15.03 38.438-20.708 16.266-6.903 33.202-12.024 50.582-15.364 6.351-1.224 12.701-2.115 19.163-2.783 4.679-.557 9.247-1.002 13.927-1.113 9.47-.223 18.94-.446 28.41.222 4.791.334 9.582.78 14.373 1.336 5.459.668 10.918 1.448 16.266 2.45 15.487 3.006 30.639 7.347 45.346 13.137 9.47 3.785 18.717 8.127 27.741 13.025 9.359 5.122 18.273 10.688 26.852 16.923 7.13 5.121 14.038 10.576 20.611 16.366v1.781c-.669.668-1.337 1.225-2.005 1.893-9.471 9.463-18.941 18.926-28.411 28.389-.445.445-.891 1.002-1.448 1.447-.78.668-1.114.668-1.894-.111-1.226-1.225-2.34-2.56-3.454-3.896-9.916-10.577-20.723-20.263-32.533-28.724-17.158-12.247-35.764-21.821-55.707-28.724-12.701-4.342-25.848-7.57-39.107-9.463-8.244-1.224-16.489-2.004-24.845-2.226-2.339 0-4.679 0-7.019-.223-.668-.111-1.337 0-2.005 0-1.003 0-2.117.111-3.12.111-5.793.112-11.587.334-17.269.891-5.237.557-10.473 1.225-15.598 2.004-9.581 1.559-19.052 3.785-28.299 6.68-15.598 4.787-30.639 11.133-44.9 19.149-13.37 7.459-25.848 16.143-37.435 26.163-.223.222-.557.334-.446.779.891-.111 1.672-.557 2.452-1.002 8.021-3.674 16.155-6.902 24.511-9.686 10.918-3.674 22.06-6.457 33.424-8.461 4.234-.779 8.579-1.447 12.924-1.893 3.119-.334 6.239-.668 9.359-1.002 4.234-.334 8.578-.779 12.812-.779 6.796 0 13.481-.111 20.277.334 4.457.334 9.025.557 13.482 1.113 6.462.78 12.924 1.67 19.386 3.006 19.163 3.786 37.657 9.686 55.484 17.813 13.704 6.346 26.851 13.694 39.329 22.489 13.927 9.798 26.85 20.819 38.549 33.177 4.679 4.899 9.136 10.02 13.37 15.253 11.698 14.584 21.726 30.282 30.082 46.982 1.337 2.56 1.225 2.56-1.449 3.673-7.465 3.118-15.041 6.235-22.506 9.352-5.57 2.338-11.252 4.676-16.934 7.014-1.783.668-2.006.557-2.675-1.113-.111-.223-.111-.445-.222-.668-4.122-11.69-9.136-23.046-15.152-33.845-8.802-15.809-19.498-30.282-31.977-43.419-5.682-6.012-11.698-11.579-18.049-16.923-11.141-9.351-23.173-17.479-35.875-24.381-16.377-8.907-33.424-15.587-51.473-20.263-8.022-2.004-16.155-3.674-24.288-4.787-3.899-.556-7.91-1.113-11.81-1.336-3.342-.222-6.685-.668-10.139-.779-8.133-.111-16.266-.334-24.288.223-4.902.334-9.916.779-14.818 1.336-7.242.89-14.373 2.226-21.503 3.785-6.574 1.447-13.147 3.228-19.609 5.344-.334.111-.891 0-.891.668.223 0 .446.111.669.111 10.25-.111 20.611-.223 30.861.779 4.456.446 9.025.891 13.481 1.559 9.916 1.447 19.72 3.451 29.302 6.235 13.481 3.785 26.405 8.572 38.995 14.584 12.256 5.789 23.843 12.692 34.984 20.374 11.587 8.127 22.394 17.145 32.533 27.165 5.682 5.566 11.03 11.467 16.043 17.701 7.688 9.241 14.707 19.038 20.946 29.281 5.682 9.351 10.807 19.149 15.264 29.168 4.345 9.575 7.91 19.483 10.918 29.615 3.231 10.91 5.794 21.932 7.576 33.176.78 4.899 1.449 9.798 1.895 14.696.223 2.783.446 5.567.78 8.35.334 2.895 0 3.229-3.008 3.229h-41.447c-2.897 0-3.007-.112-2.896-2.895.111-2.561.334-5.121.334-7.682 0-5.121.111-10.242-.223-15.364-.334-5.566-.78-11.133-1.449-16.588-.891-7.348-2.228-14.584-3.899-21.71-4.679-20.039-12.144-38.966-22.283-56.89-10.027-17.702-22.282-33.734-36.655-48.095-4.345-4.342-8.802-8.35-13.481-12.358-12.478-10.465-25.848-19.594-40.22-27.165-13.481-7.125-27.631-12.914-42.337-17.145-8.579-2.561-17.27-4.565-26.072-6.123-7.13-1.225-14.26-2.004-21.502-2.672-.223 0-.334 0-.557.111.334.445.668.445 1.002.557 8.579 3.117 16.935 6.568 25.068 10.688 11.587 5.789 22.729 12.357 33.202 19.928 8.802 6.234 17.046 13.137 24.845 20.485 5.905 5.678 11.587 11.578 16.935 17.702 5.682 6.568 10.919 13.359 15.821 20.485 9.359 13.471 17.269 27.61 23.731 42.64 4.791 11.244 8.802 22.711 11.921 34.512 2.452 9.018 4.346 18.147 5.683 27.388.557 4.119 1.225 8.35 1.559 12.469.111 2.115.335 4.342.558 6.457.222 3.786.557 7.682.668 11.467.111 6.124.111 12.136-.223 18.259-.223 4.898-.669 9.908-1.115 14.807-.445 4.899-1.225 9.797-2.005 14.696-2.228 13.805-5.682 27.387-10.138 40.636-.892 2.56-.891 2.56-3.343 1.558-10.027-4.119-20.166-8.349-30.193-12.469-3.231-1.336-6.574-2.672-9.805-4.119-1.225-.557-1.337-.891-.891-2.115.111-.334.335-.668.446-1.002 1.114-2.338 2.228-4.788 3.342-7.126 5.571-12.691 9.916-25.828 12.924-39.3 1.226-5.566 2.229-11.133 3.12-16.811.668-4.342 1.003-8.795 1.448-13.248.335-4.231.557-8.573.669-12.803.223-5.233.111-10.354-.335-15.587-.222-2.894-.334-5.9-.557-8.795-.557-5.344-1.225-10.688-2.116-16.032-2.006-11.689-4.902-23.268-8.69-34.512-3.9-11.356-8.691-22.378-14.373-33.066-5.237-9.908-11.253-19.372-17.938-28.389-5.013-6.792-10.473-13.249-16.155-19.372-6.016-6.569-12.59-12.692-19.386-18.481-5.348-4.565-11.03-8.907-16.712-12.915-8.802-6.234-18.049-11.689-27.519-16.699-.334-.223-.669-.557-1.226-.334.111.111.112.334.223.334 9.247 8.35 17.604 17.367 25.403 27.053 7.353 9.129 13.926 18.815 19.831 28.946 5.237 9.018 9.916 18.37 13.927 28.056 6.128 14.584 10.696 29.614 13.815 45.201 1.449 7.236 2.674 14.473 3.454 21.821.334 3.562.669 7.125 1.003 10.799.446 5.455.334 10.91.668 16.477.112 2.56-.223 5.121-.223 7.682 0 4.119-.334 8.238-.668 12.358-.446 4.787-.892 9.574-1.56 14.361-1.226 8.907-3.008 17.813-5.125 26.497-2.228 8.795-4.902 17.368-8.022 25.829-6.573 17.702-15.04 34.513-25.402 50.433-6.685 10.243-14.149 20.04-22.171 29.169-.446.557-.892 1.002-1.115 1.67-.111.112-.445.112-.668.112Z" fill="#ffb6c1" fill-opacity=".1" class="ryanSvg"/><path d="M367.84 700.423c-.334-1.002-1.114-1.559-1.782-2.227-9.693-9.686-19.387-19.372-28.968-29.058-.446-.445-1.003-1.002-1.449-1.447-.557-.668-.557-1.002 0-1.559.557-.556 1.226-1.113 1.783-1.67 6.016-5.344 11.698-11.021 17.046-17.033 6.573-7.237 12.479-15.03 17.938-23.157 6.128-9.129 11.475-18.704 16.155-28.613 3.676-8.015 7.019-16.254 9.693-24.715 3.454-10.688 6.128-21.71 7.91-32.843.892-5.567 1.56-11.133 2.117-16.7.557-6.346.669-12.691.669-19.149 0-2.226 0-4.342-.112-6.568-.111-7.348-.779-14.696-1.671-21.933-1.225-9.908-3.231-19.594-5.682-29.168-2.897-10.8-6.573-21.376-11.03-31.619-5.793-13.359-12.812-26.051-20.946-38.075-4.345-6.346-8.913-12.469-13.815-18.37-.334-.445-.668-1.002-1.337-1.113-.223.668.223 1.002.446 1.447 4.345 9.463 8.133 19.261 11.141 29.28 3.231 10.466 5.793 21.153 7.465 31.953.891 5.232 1.559 10.576 2.005 15.809.334 3.228.446 6.457.668 9.686.446 6.791.335 13.693.223 20.485-.111 3.785-.445 7.682-.668 11.467-.223 4.676-.891 9.24-1.448 13.916-.558 3.674-1.114 7.459-1.783 11.133-2.005 11.022-4.791 21.821-8.356 32.509-6.016 18.147-14.038 35.404-24.066 51.769-6.462 10.577-13.704 20.597-21.726 30.171-3.119 3.674-6.35 7.237-9.581 10.799-4.345 4.676-8.913 9.13-13.704 13.472-7.13 6.457-14.595 12.58-22.394 18.147-11.476 8.238-23.62 15.586-36.321 21.821-2.785 1.336-2.785 1.336-4.011-1.559-4.011-9.686-8.022-19.261-12.033-28.946-1.337-3.229-2.673-6.569-4.01-9.798 0-.111-.112-.111-.112-.222-.78-1.893-.78-2.115 1.225-2.783 2.006-.668 4.012-1.448 5.906-2.116 21.614-8.127 41.446-19.483 59.384-34.067 6.35-5.121 12.366-10.577 18.049-16.366 8.467-8.684 16.154-17.924 23.173-27.944 6.796-9.686 12.702-19.817 17.827-30.505 7.576-15.809 13.258-32.175 17.046-49.32 1.448-6.346 2.563-12.803 3.343-19.26.445-3.674.891-7.348 1.114-11.022.668-7.459.891-15.03.78-22.489-.112-4.787-.335-9.575-.78-14.362-.223-3.117-.558-6.234-.892-9.463-.668-6.012-1.671-11.913-2.897-17.813-1.559-7.793-3.565-15.475-5.904-23.157-.223-.668-.446-1.225-.669-1.893 0 0-.111-.111-.334-.111v17.813c0 4.676-.446 9.241-.78 13.916-.335 4.12-.78 8.239-1.337 12.358-1.226 8.907-2.897 17.591-5.236 26.275-2.674 10.353-6.017 20.485-10.028 30.393-5.348 13.137-11.81 25.829-19.386 37.853-6.239 10.02-13.258 19.483-20.946 28.501-6.685 7.904-13.926 15.363-21.614 22.377-6.685 6.124-13.593 11.801-20.946 17.145-8.467 6.235-17.38 11.801-26.627 16.923-15.153 8.35-31.085 15.141-47.686 20.262-9.916 3.006-19.943 5.455-30.193 7.348-5.571 1.002-11.253 1.781-16.935 2.449-3.231.446-6.573.668-9.916.891-.891.111-1.782.111-2.674.111-1.114 0-1.448-.334-1.56-1.447-.111-.557-.111-1.225-.111-1.781v-40.748c0-3.896.446-3.228 3.231-3.117 8.022.223 16.044.334 24.177 0 4.345-.223 8.69-.668 13.035-1.113 6.017-.668 12.033-1.67 18.049-2.895 14.15-2.895 27.965-7.236 41.224-12.914 12.924-5.567 25.179-12.247 36.766-20.04 8.802-5.901 17.158-12.469 24.957-19.594 3.231-3.006 6.462-6.124 9.582-9.241 7.91-8.016 15.041-16.588 21.614-25.718 7.353-10.019 13.704-20.707 19.163-31.84 5.125-10.354 9.359-20.931 12.924-31.953 3.676-11.355 6.351-23.045 8.133-34.846.78-5.233 1.449-10.354 1.894-15.698.112-.891.223-1.781.335-2.672-.557.111-.557.557-.669.891-2.674 7.459-5.793 14.695-9.136 21.821-5.236 10.91-11.252 21.375-18.049 31.395-5.793 8.461-12.032 16.477-18.829 24.159-5.459 6.123-11.364 12.024-17.38 17.59-7.576 7.014-15.599 13.36-24.066 19.372-11.364 8.016-23.285 14.919-35.763 20.931-11.587 5.455-23.509 10.019-35.765 13.693-9.693 2.895-19.609 5.233-29.636 6.903-4.791.89-9.693 1.447-14.484 2.004-4.233.445-8.356.668-12.59 1.113h-.668c-6.128.111-12.144.668-18.271.334-4.457-.223-8.802-.223-13.259-.557-4.0106-.334-7.9102-.668-11.9211-1.113-5.3478-.668-10.5848-1.336-15.8212-2.338-9.3588-1.67-18.7176-3.896-27.8535-6.68-3.1196-.89-6.3504-2.004-9.4699-3.006-.3343-.111-.5573-.222-.8915-.334-1.1142-.445-1.3365-.779-.8909-1.892.2229-.668.5565-1.448.7793-2.116 4.4566-10.687 8.8018-21.375 13.2583-32.063.8913-2.115 1.6717-4.119 2.563-6.235.2228-.445.3341-.779.5569-1.224.2229-.446.6682-.668 1.1139-.446.5571.223 1.1144.446 1.6715.668 14.3724 7.014 29.4129 12.247 44.8992 15.921 7.354 1.67 14.707 3.006 22.172 3.896 5.794.668 11.698 1.114 17.492 1.448 4.011.222 8.133.334 12.144.222 4.457-.222 9.025-.334 13.481-.668 3.788-.334 7.465-.668 11.253-1.113 4.68-.557 9.358-1.336 14.038-2.227 10.473-2.115 20.723-4.787 30.862-8.349 15.152-5.344 29.636-12.136 43.228-20.597 10.362-6.346 20.167-13.582 29.414-21.598 6.35-5.455 12.478-11.356 18.16-17.479 10.919-11.801 20.612-24.716 28.856-38.521 2.451-4.23 4.903-8.461 7.131-12.803.223-.445.668-.779.445-1.447-.445 0-.668.334-.89.668-4.791 5.344-10.028 10.465-15.264 15.252-5.348 4.899-11.03 9.575-16.824 14.028-13.481 10.242-27.965 18.926-43.34 26.051-17.715 8.239-36.098 14.14-55.15 17.925-6.128 1.224-12.255 2.226-18.494 2.894-4.123.446-8.246.891-12.368 1.114-6.573.445-13.035.779-19.608.668-4.68-.112-9.359-.112-13.927-.668-2.451-.223-4.903-.334-7.465-.557-4.122-.445-8.245-.891-12.255-1.447-9.025-1.336-18.049-3.229-26.962-5.455-12.813-3.34-25.2919-7.682-37.436-13.026-13.9268-6.123-27.1846-13.471-39.8858-21.933-9.1359-6.123-17.938-12.914-26.18264-20.262-.22283-.223-.44563-.445-.66846-.668-.44565-.445-.44576-.891-.11152-1.336.33424-.445.78041-.891 1.22607-1.336 9.91585-9.908 19.71995-19.706 29.63585-29.614 2.1168-2.115 2.0051-2.004 3.8992.111 5.9049 6.68 12.1441 12.803 18.829 18.704 6.7962 6.012 13.9272 11.467 21.3919 16.477 5.4593 3.674 11.03 7.125 16.7121 10.131 14.8183 8.016 30.3043 14.362 46.4593 18.815 8.913 2.45 17.938 4.342 27.074 5.678 4.79.668 9.693 1.225 14.595 1.559 6.908.445 13.815 1.002 20.723.668 4.456-.112 8.913-.223 13.258-.668 2.34-.223 4.791-.334 7.131-.557 2.674-.334 5.348-.557 8.022-1.002 8.69-1.224 17.268-3.006 25.847-5.232 11.699-3.118 23.063-7.126 34.204-12.024 13.259-5.901 25.849-13.026 37.881-21.376 5.794-4.008 11.253-8.238 16.713-12.692.445-.334.779-.668 1.113-1.113-.668-.445-1.002 0-1.336.223-8.691 4.008-17.603 7.459-26.628 10.353-11.587 3.674-23.397 6.569-35.43 8.462-5.459.89-10.807 1.558-16.266 2.004-3.565.334-7.019.445-10.585.668-5.013.334-10.027.334-15.152.222-4.568-.111-9.136-.334-13.704-.668-3.343-.222-6.685-.556-10.139-1.002-6.239-.668-12.366-1.67-18.494-2.894-11.253-2.227-22.283-5.122-33.09-8.907-8.245-2.894-16.266-6.123-24.177-9.797-11.364-5.344-22.283-11.467-32.756-18.481-8.69-5.789-16.8235-12.024-24.7339-18.815-7.019-6.123-13.8152-12.581-20.0543-19.372-10.9186-11.801-20.723-24.604-29.1904-38.298-4.4566-7.125-8.4678-14.362-12.1445-21.821-.3342-.556-.5565-1.224-.8908-1.892-.2228-.446-.1116-.891.4454-1.114.4457-.222.8914-.445 1.4485-.668 10.5843-4.453 21.2799-8.795 31.8642-13.248 2.4511-1.002 4.9025-2.004 7.2422-3.006.557-.223 1.1137-.446 1.6708-.668.557-.112.8917.111 1.1145.557.2229.667.4457 1.224.6685 1.892 3.1196 8.907 6.7961 17.702 11.0299 26.163 6.7962 13.471 14.9295 26.052 24.3999 37.741 3.899 4.788 7.91 9.352 12.255 13.806 11.587 12.135 24.4 22.711 38.438 31.84 10.919 7.126 22.394 13.249 34.427 18.259 12.256 5.121 24.734 9.24 37.658 12.246 6.351 1.448 12.813 2.672 19.275 3.563 5.013.668 10.138 1.225 15.263 1.67 8.133.668 16.378.779 24.511.445 7.577-.334 15.152-1.002 22.617-2.004 13.481-1.781 26.629-4.898 39.553-8.906.557-.223 1.113-.446 1.67-.668 0 0 .001-.112.112-.334-3.454.111-6.796.111-10.138.222-1.003 0-2.006.223-2.897.112-2.34-.223-4.68-.223-7.019-.223-4.568 0-9.025-.445-13.482-.779-7.687-.668-15.375-1.782-22.951-3.229-16.824-3.229-33.09-8.127-48.799-14.918-14.707-6.235-28.634-13.917-41.892-22.935-8.468-5.789-16.601-12.135-24.288-18.926-4.345-3.897-8.69-7.793-12.813-12.024-6.239-6.457-12.144-13.137-17.715-20.151-7.687-9.797-14.706-20.151-20.834-30.95-6.239-11.022-11.699-22.378-16.155-34.179-5.348-13.805-9.359-28.055-12.2554-42.64-1.2256-6.346-2.2285-12.692-3.0084-19.149-.5571-4.564-.8912-9.129-1.2254-13.694v-.668c0-.668.334-1.113 1.1139-1.224.557-.112 1.2259-.112 1.783-.112h41.4453c3.009 0 3.009 0 3.009 3.006 0 4.788-.669 9.575-.335 14.362.223 4.565.223 9.129.669 13.694.334 3.34.557 6.68 1.003 10.131.891 7.793 2.339 15.587 4.122 23.268 3.899 16.589 9.804 32.509 17.492 47.65 7.13 14.139 15.709 27.277 25.737 39.634 3.565 4.454 7.465 8.684 11.364 12.803 12.256 12.915 25.959 24.159 40.889 33.845 14.595 9.463 30.193 17.145 46.571 23.046 11.475 4.119 23.174 7.236 35.207 9.574 5.571 1.114 11.252 2.004 16.934 2.561 2.117.223 4.346.445 6.463.779.445 0 .891.223 1.336-.111-.334-.111-.557-.334-.891-.445-10.25-3.674-20.166-8.128-29.859-13.249-9.693-5.121-19.052-10.91-27.965-17.367-12.813-9.241-24.622-19.706-35.429-31.285-6.797-7.236-13.036-14.918-18.829-23.045-8.356-11.579-15.709-23.825-21.949-36.74-6.685-13.916-12.144-28.278-16.155-43.196-2.34-8.462-4.122-17.034-5.571-25.718-.891-5.455-1.559-10.799-2.005-16.254-.446-5.233-.78-10.466-1.003-15.698-.111-3.117-.334-6.346-.222-9.463.223-5.122.334-10.243.668-15.253.334-4.119.668-8.2383 1.114-12.3575.78-6.9026 1.894-13.6938 3.231-20.485 2.117-10.1312 4.679-20.1511 7.91-30.0596.335-1.1133.669-2.1153 1.114-3.1173.335-.8906.78-1.0019 1.56-.7793.446.1114.891.334 1.226.4454 13.035 5.3439 25.96 10.7991 38.884 16.143 2.562 1.1134 2.562 1.1133 1.337 3.5626-6.685 13.6938-11.81 27.9443-15.376 42.7514-2.005 8.1273-3.565 16.4773-4.456 24.8273-.78 6.457-1.337 12.803-1.449 19.26 0 1.893-.334 3.785-.222 5.567.111 5.566.334 11.133.668 16.699.223 4.008.668 7.905 1.114 11.913.557 4.676 1.337 9.352 2.229 14.028 2.785 14.361 6.907 28.278 12.478 41.86 5.236 12.803 11.587 24.938 19.052 36.517 6.239 9.797 13.258 18.926 20.945 27.61 6.462 7.237 13.37 14.028 20.612 20.485 7.353 6.457 15.152 12.358 23.285 17.813 7.354 4.899 14.819 9.352 22.729 13.471.557.334 1.225.557 1.782.891.335-.557-.111-.779-.333-1.002-2.117-2.004-4.234-3.897-6.24-5.901-8.801-8.683-16.934-17.924-24.288-27.832-6.796-9.018-12.812-18.593-18.16-28.501-7.799-14.251-13.927-29.058-18.718-44.533-3.454-11.244-6.016-22.6-7.799-34.179-.891-5.678-1.56-11.356-2.005-17.033-.335-3.563-.669-7.014-.669-10.577 0-3.785-.557-7.682-.334-11.467.334-5.01.222-10.02.668-15.03.334-4.008.668-7.904 1.114-11.912.557-4.342 1.115-8.796 1.895-13.137 2.228-13.026 5.347-25.718 9.581-38.1872 3.12-9.3519 6.908-18.481 11.03-27.3876 5.682-12.1351 12.367-23.7136 19.943-34.7354 5.348-7.9046 11.253-15.4751 17.492-22.71166.891-1.11332 1.782-2.22663 2.785-3.33995h.892c.668.77932 1.337 1.55864 2.117 2.33796 9.581 9.57455 19.274 19.26035 28.856 28.83485.557.5567 1.002 1.1133 1.559 1.67.223.334.223.668 0 1.002-.334.334-.668.668-1.002.8906-1.894 1.7814-3.9 3.5627-5.794 5.344-6.907 6.5685-13.369 13.5824-19.386 21.0416-8.467 10.5765-15.932 21.821-22.282 33.8448-4.457 8.461-8.356 17.145-11.699 26.052-3.454 9.463-6.351 19.149-8.467 28.946-1.56 7.236-2.786 14.584-3.677 21.932-.557 4.342-1.003 8.684-1.114 13.026-.223 5.344-.335 10.688-.223 15.92.111 7.571.557 15.141 1.448 22.712.669 5.678 1.56 11.356 2.563 16.922 2.116 11.134 5.125 22.044 9.024 32.732 3.008 8.461 6.462 16.7 10.473 24.716 5.236 10.576 11.253 20.707 18.049 30.393 4.011 5.678 8.245 11.133 12.701 16.366.223.222.446.668.892.668.223-.557-.223-1.002-.445-1.448-3.009-6.679-5.905-13.471-8.357-20.485-3.231-9.129-5.905-18.481-8.022-27.944-1.337-6.012-2.451-12.024-3.23-18.147-.558-4.119-1.115-8.35-1.449-12.58-.223-3.674-.668-7.348-.78-11.022-.111-8.461-.334-16.923.334-25.495.223-2.895.335-5.678.669-8.573.446-4.008 1.002-8.015 1.559-12.023 1.783-12.47 4.68-24.605 8.468-36.629 4.457-14.25 10.138-27.944 17.158-41.081 3.676-7.014 7.687-13.805 11.921-20.374 6.796-10.465 14.373-20.3732 22.729-29.6137 5.905-6.6799 12.255-13.0258 18.829-19.0377 7.019-6.3459 14.372-12.2465 22.06-17.8131 11.587-8.3499 23.731-15.5864 36.432-21.9323 2.451-1.2247 2.451-1.2247 3.565 1.336 5.46 13.0258 10.807 26.0516 16.266 39.0774.223.4453.335.8906.447 1.2246.111.4453-.001.8907-.447 1.1133-.557.334-1.225.5567-1.893.7793-15.153 5.344-29.637 12.1352-43.229 20.7077-12.701 8.0159-24.511 17.1455-35.318 27.6105-6.351 6.123-12.256 12.58-17.827 19.483-9.247 11.467-17.269 23.602-24.065 36.628-7.353 14.139-13.258 28.946-17.492 44.31-2.562 9.129-4.457 18.37-5.794 27.721-.557 4.12-1.114 8.128-1.448 12.247-.223 3.34-.668 6.68-.779 10.131-.335 11.69-.223 23.38 1.225 35.069.78 6.68 1.782 13.249 3.008 19.818 1.671 8.683 4.011 17.256 6.685 25.717.111.223 0 .557.445.557-.111-1.782-.222-3.452-.222-5.233 0-5.678-.112-11.244.222-16.922.335-5.789.78-11.579 1.449-17.257 1.114-9.463 2.785-18.703 5.014-27.944 4.122-16.811 9.916-33.065 17.603-48.652 5.571-11.467 12.033-22.377 19.386-32.731 8.022-11.467 16.935-22.044 26.628-31.952 4.011-4.12 8.245-7.905 12.478-11.69 6.797-6.012 13.927-11.69 21.392-16.923 12.701-8.906 26.07-16.588 40.22-23.045 13.481-6.123 27.296-11.022 41.557-14.696 7.465-1.8927 15.042-3.5626 22.729-4.7873 5.014-.7793 9.916-1.5586 14.929-2.0039 2.34-.2227 4.68-.5567 6.908-.668 1.448-.1114 2.897-.1114 4.234-.1114.557 0 1.003.4454 1.003 1.002.111.7793.111 1.67.111 2.4493V138.421c-.111 1.113-.446 1.447-1.56 1.447-2.785-.111-5.571-.223-8.356-.223-10.25-.222-20.612.112-30.862 1.336-6.685.891-13.258 1.893-19.72 3.34-17.157 3.674-33.647 9.463-49.467 17.257-10.585 5.121-20.612 11.133-30.194 17.924-9.47 6.791-18.494 14.251-26.85 22.378-6.017 5.789-11.587 12.024-16.824 18.481-11.81 14.473-21.726 30.059-29.636 46.982-5.014 10.688-9.136 21.709-12.479 33.065-4.345 14.696-7.019 29.614-8.467 44.867-.112.779-.223 1.558.111 2.449.669-.668.78-1.336 1.003-1.893 4.791-13.025 10.807-25.606 17.826-37.63 8.022-13.805 17.492-26.608 28.077-38.52 4.791-5.344 9.692-10.466 15.04-15.253 6.351-5.9 12.925-11.467 19.832-16.588 9.693-7.237 19.832-13.805 30.528-19.595 11.587-6.234 23.619-11.578 35.986-15.92 9.916-3.451 19.944-6.235 30.194-8.461 7.242-1.559 14.595-2.895 21.948-3.674 3.008-.334 6.128-.668 9.136-1.002 3.899-.445 7.799-.779 11.699-.779 6.573-.112 13.035-.112 19.608 0 3.343 0 6.797.222 10.139.556 3.566.334 7.13.78 10.696 1.114 4.79.556 9.581 1.224 14.261 2.115 9.804 1.781 19.609 4.119 29.079 7.014 3.119.89 6.128 2.004 9.247 3.006.78.222 1.003.668.669 1.336-.223.668-.446 1.224-.78 1.892-5.237 12.803-10.584 25.495-15.821 38.298-1.114 2.672-1.114 2.672-3.677 1.448-4.011-2.004-8.021-3.786-12.143-5.456-11.476-4.675-23.175-8.349-35.208-11.021-4.568-1.002-9.135-1.893-13.703-2.561-3.788-.557-7.577-1.113-11.365-1.336-2.897-.223-5.793-.668-8.801-.668-11.253-.334-22.506-.445-33.759.779-4.234.446-8.356 1.002-12.478 1.559-7.576 1.225-15.041 2.783-22.506 4.787-13.37 3.563-26.294 8.35-38.883 14.362-11.476 5.455-22.283 11.801-32.645 19.149-7.799 5.455-15.152 11.356-22.059 17.813-6.908 6.346-13.482 13.026-19.609 20.262-7.911 9.241-14.93 19.038-21.28 29.281-2.563 4.119-5.014 8.35-7.242 12.691-.223.446-.669 1.002-.557 1.67h.334c.557-.556 1.114-1.002 1.671-1.558 4.791-4.899 9.582-9.797 14.707-14.251 8.467-7.57 17.38-14.361 26.739-20.707 12.144-8.128 24.957-15.03 38.438-20.708 16.266-6.903 33.202-12.024 50.582-15.364 6.351-1.224 12.701-2.115 19.163-2.783 4.679-.557 9.247-1.002 13.927-1.113 9.47-.223 18.94-.446 28.41.222 4.791.334 9.582.78 14.373 1.336 5.459.668 10.918 1.448 16.266 2.45 15.487 3.006 30.639 7.347 45.346 13.137 9.47 3.785 18.717 8.127 27.741 13.025 9.359 5.122 18.273 10.688 26.852 16.923 7.13 5.121 14.038 10.576 20.611 16.366v1.781c-.669.668-1.337 1.225-2.005 1.893-9.471 9.463-18.941 18.926-28.411 28.389-.445.445-.891 1.002-1.448 1.447-.78.668-1.114.668-1.894-.111-1.226-1.225-2.34-2.56-3.454-3.896-9.916-10.577-20.723-20.263-32.533-28.724-17.158-12.247-35.764-21.821-55.707-28.724-12.701-4.342-25.848-7.57-39.107-9.463-8.244-1.224-16.489-2.004-24.845-2.226-2.339 0-4.679 0-7.019-.223-.668-.111-1.337 0-2.005 0-1.003 0-2.117.111-3.12.111-5.793.112-11.587.334-17.269.891-5.237.557-10.473 1.225-15.598 2.004-9.581 1.559-19.052 3.785-28.299 6.68-15.598 4.787-30.639 11.133-44.9 19.149-13.37 7.459-25.848 16.143-37.435 26.163-.223.222-.557.334-.446.779.891-.111 1.672-.557 2.452-1.002 8.021-3.674 16.155-6.902 24.511-9.686 10.918-3.674 22.06-6.457 33.424-8.461 4.234-.779 8.579-1.447 12.924-1.893 3.119-.334 6.239-.668 9.359-1.002 4.234-.334 8.578-.779 12.812-.779 6.796 0 13.481-.111 20.277.334 4.457.334 9.025.557 13.482 1.113 6.462.78 12.924 1.67 19.386 3.006 19.163 3.786 37.657 9.686 55.484 17.813 13.704 6.346 26.851 13.694 39.329 22.489 13.927 9.798 26.85 20.819 38.549 33.177 4.679 4.899 9.136 10.02 13.37 15.253 11.698 14.584 21.726 30.282 30.082 46.982 1.337 2.56 1.225 2.56-1.449 3.673-7.465 3.118-15.041 6.235-22.506 9.352-5.57 2.338-11.252 4.676-16.934 7.014-1.783.668-2.006.557-2.675-1.113-.111-.223-.111-.445-.222-.668-4.122-11.69-9.136-23.046-15.152-33.845-8.802-15.809-19.498-30.282-31.977-43.419-5.682-6.012-11.698-11.579-18.049-16.923-11.141-9.351-23.173-17.479-35.875-24.381-16.377-8.907-33.424-15.587-51.473-20.263-8.022-2.004-16.155-3.674-24.288-4.787-3.899-.556-7.91-1.113-11.81-1.336-3.342-.222-6.685-.668-10.139-.779-8.133-.111-16.266-.334-24.288.223-4.902.334-9.916.779-14.818 1.336-7.242.89-14.373 2.226-21.503 3.785-6.574 1.447-13.147 3.228-19.609 5.344-.334.111-.891 0-.891.668.223 0 .446.111.669.111 10.25-.111 20.611-.223 30.861.779 4.456.446 9.025.891 13.481 1.559 9.916 1.447 19.72 3.451 29.302 6.235 13.481 3.785 26.405 8.572 38.995 14.584 12.256 5.789 23.843 12.692 34.984 20.374 11.587 8.127 22.394 17.145 32.533 27.165 5.682 5.566 11.03 11.467 16.043 17.701 7.688 9.241 14.707 19.038 20.946 29.281 5.682 9.351 10.807 19.149 15.264 29.168 4.345 9.575 7.91 19.483 10.918 29.615 3.231 10.91 5.794 21.932 7.576 33.176.78 4.899 1.449 9.798 1.895 14.696.223 2.783.446 5.567.78 8.35.334 2.895 0 3.229-3.008 3.229h-41.447c-2.897 0-3.007-.112-2.896-2.895.111-2.561.334-5.121.334-7.682 0-5.121.111-10.242-.223-15.364-.334-5.566-.78-11.133-1.449-16.588-.891-7.348-2.228-14.584-3.899-21.71-4.679-20.039-12.144-38.966-22.283-56.89-10.027-17.702-22.282-33.734-36.655-48.095-4.345-4.342-8.802-8.35-13.481-12.358-12.478-10.465-25.848-19.594-40.22-27.165-13.481-7.125-27.631-12.914-42.337-17.145-8.579-2.561-17.27-4.565-26.072-6.123-7.13-1.225-14.26-2.004-21.502-2.672-.223 0-.334 0-.557.111.334.445.668.445 1.002.557 8.579 3.117 16.935 6.568 25.068 10.688 11.587 5.789 22.729 12.357 33.202 19.928 8.802 6.234 17.046 13.137 24.845 20.485 5.905 5.678 11.587 11.578 16.935 17.702 5.682 6.568 10.919 13.359 15.821 20.485 9.359 13.471 17.269 27.61 23.731 42.64 4.791 11.244 8.802 22.711 11.921 34.512 2.452 9.018 4.346 18.147 5.683 27.388.557 4.119 1.225 8.35 1.559 12.469.111 2.115.335 4.342.558 6.457.222 3.786.557 7.682.668 11.467.111 6.124.111 12.136-.223 18.259-.223 4.898-.669 9.908-1.115 14.807-.445 4.899-1.225 9.797-2.005 14.696-2.228 13.805-5.682 27.387-10.138 40.636-.892 2.56-.891 2.56-3.343 1.558-10.027-4.119-20.166-8.349-30.193-12.469-3.231-1.336-6.574-2.672-9.805-4.119-1.225-.557-1.337-.891-.891-2.115.111-.334.335-.668.446-1.002 1.114-2.338 2.228-4.788 3.342-7.126 5.571-12.691 9.916-25.828 12.924-39.3 1.226-5.566 2.229-11.133 3.12-16.811.668-4.342 1.003-8.795 1.448-13.248.335-4.231.557-8.573.669-12.803.223-5.233.111-10.354-.335-15.587-.222-2.894-.334-5.9-.557-8.795-.557-5.344-1.225-10.688-2.116-16.032-2.006-11.689-4.902-23.268-8.69-34.512-3.9-11.356-8.691-22.378-14.373-33.066-5.237-9.908-11.253-19.372-17.938-28.389-5.013-6.792-10.473-13.249-16.155-19.372-6.016-6.569-12.59-12.692-19.386-18.481-5.348-4.565-11.03-8.907-16.712-12.915-8.802-6.234-18.049-11.689-27.519-16.699-.334-.223-.669-.557-1.226-.334.111.111.112.334.223.334 9.247 8.35 17.604 17.367 25.403 27.053 7.353 9.129 13.926 18.815 19.831 28.946 5.237 9.018 9.916 18.37 13.927 28.056 6.128 14.584 10.696 29.614 13.815 45.201 1.449 7.236 2.674 14.473 3.454 21.821.334 3.562.669 7.125 1.003 10.799.446 5.455.334 10.91.668 16.477.112 2.56-.223 5.121-.223 7.682 0 4.119-.334 8.238-.668 12.358-.446 4.787-.892 9.574-1.56 14.361-1.226 8.907-3.008 17.813-5.125 26.497-2.228 8.795-4.902 17.368-8.022 25.829-6.573 17.702-15.04 34.513-25.402 50.433-6.685 10.243-14.149 20.04-22.171 29.169-.446.557-.892 1.002-1.115 1.67-.111.112-.445.112-.668.112Z" stroke="#000" stroke-opacity=".13" stroke-width="4.11091" style="mix-blend-mode:luminosity" mask="url(#b)"/><defs><radialGradient id="a" cx="0" cy="0" r="1" gradientUnits="userSpaceOnUse" gradientTransform="matrix(0 349 -348.5 0 350.94 351.417)"><stop stop-color="#090909"/><stop offset="1" stop-color="#090909" stop-opacity="0"/></radialGradient></defs></svg>