<svg width="243" height="219" viewBox="0 0 243 219" fill="none" xmlns="http://www.w3.org/2000/svg"><g clip-path="url(#clip0_1661_5444)" fill="#000"><path d="M31.092 149.646c-6.154-2.548-10.981-7.172-13.519-12.95-2.566-5.98-2.752-12.658-.526-18.869 1.252-3.599 3.176-6.982 5.685-9.994.62-.746 1.886.086 1.266.832-5.236 6.351-8.074 14.571-6.572 22.407.684 3.748 2.332 7.266 4.807 10.262 2.475 2.996 5.706 5.382 9.422 6.96.907.361.335 1.725-.583 1.356l.02-.004z"/><path d="M16.22 110.41a36.75 36.75 0 007.493-2.843c.647-.327 1.249.344 1.048.906a14.817 14.817 0 00-.842 6.103.716.716 0 01-.15.537.817.817 0 01-1.088.183.696.696 0 01-.31-.466 16.484 16.484 0 01.964-6.893l1.047.906a38.625 38.625 0 01-7.881 2.964.828.828 0 01-.583-.125.7.7 0 01-.31-.47.713.713 0 01.152-.536.846.846 0 01.506-.303l-.046.037z"/></g><g clip-path="url(#clip1_1661_5444)" fill="#000"><path d="M204.513 5.598a24.97 24.97 0 0115.113 10.17 27.539 27.539 0 014.617 18.277 31.754 31.754 0 01-2.967 10.756c-.399.839-1.731.257-1.331-.581 3.358-7.128 4.131-15.643 1.048-23.002a23.83 23.83 0 00-6.615-9.125 23.91 23.91 0 00-10.079-5.076c-.902-.189-.682-1.62.232-1.426l-.018.007z"/><path d="M226.622 41.118a31.61 31.61 0 00-6.178 4.12c-.516.435-1.209-.11-1.15-.693a15.73 15.73 0 00-.575-6.094.745.745 0 01.413-.935.726.726 0 01.937.408 17.5 17.5 0 01.637 6.886l-1.149-.694a33.266 33.266 0 016.503-4.308.735.735 0 01.94.419.745.745 0 01-.413.935l.035-.044z"/></g><rect x="182.099" y="217.213" width="127.402" height="215.573" rx="14" transform="rotate(180 182.099 217.213)" fill="#fff" stroke="#000" stroke-width="2"/><path d="M166.637 202.792H70.161a9 9 0 01-9-9V20.322a9 9 0 019-9h96.476a9 9 0 019 9v173.47a9 9 0 01-9 9z" fill="#000" stroke="#000" stroke-width="2"/><defs><clipPath id="clip0_1661_5444"><path fill="#fff" transform="scale(1 -1) rotate(-80.704 -58.189 -61.913)" d="M0 0h42.937v13.18H0z"/></clipPath><clipPath id="clip1_1661_5444"><path fill="#fff" transform="scale(-1 1) rotate(-68.706 -84.876 189.274)" d="M0 0h42.937v12.169H0z"/></clipPath></defs></svg>